<svg xmlns="http://www.w3.org/2000/svg" width="320" height="120" viewBox="0 0 320 120" role="img" aria-labelledby="t d">
  <title id="t">LinkedIn</title>
  <desc id="d">LinkedIn: i-plus-t-solution</desc>
  <defs>
  <filter id="sh" x="-15%" y="-15%" width="130%" height="160%">
    <feDropShadow dx="0" dy="10" stdDeviation="9" flood-color="#000" flood-opacity="0.30"/>
    <feDropShadow dx="0" dy="3" stdDeviation="2.5" flood-color="#000" flood-opacity="0.22"/>
  </filter>
  <linearGradient id="face" x1="0" y1="0" x2="0" y2="1">
    <stop offset="0" stop-color="#103322"/><stop offset="1" stop-color="#05150C"/>
  </linearGradient>
  <linearGradient id="faceA" x1="0" y1="0" x2="0" y2="1">
    <stop offset="0" stop-color="#134A2C"/><stop offset="1" stop-color="#061C10"/>
  </linearGradient>
  <linearGradient id="slab" x1="0" y1="0" x2="0" y2="1">
    <stop offset="0" stop-color="#0B5A2E"/><stop offset="1" stop-color="#03200F"/>
  </linearGradient>
  <linearGradient id="edge" x1="0" y1="0" x2="0" y2="1">
    <stop offset="0" stop-color="#C9FFE0" stop-opacity="0.38"/>
    <stop offset="0.3" stop-color="#C9FFE0" stop-opacity="0.07"/>
    <stop offset="1" stop-color="#C9FFE0" stop-opacity="0.02"/>
  </linearGradient>
  <radialGradient id="sheen" cx="0.18" cy="0" r="0.95">
    <stop offset="0" stop-color="#22E07D" stop-opacity="0.18"/>
    <stop offset="1" stop-color="#22E07D" stop-opacity="0"/>
  </radialGradient>
  <linearGradient id="tile" x1="0" y1="0" x2="0.35" y2="1">
    <stop offset="0" stop-color="#22DB73"/><stop offset="1" stop-color="#00822F"/>
  </linearGradient>
  <linearGradient id="gloss" x1="0" y1="0" x2="0" y2="1">
    <stop offset="0" stop-color="#FFFFFF" stop-opacity="0.5"/>
    <stop offset="1" stop-color="#FFFFFF" stop-opacity="0"/>
  </linearGradient>
  <linearGradient id="num" x1="0" y1="0" x2="0" y2="1">
    <stop offset="0" stop-color="#F0FFF5"/><stop offset="1" stop-color="#22E07D"/>
  </linearGradient>
  <linearGradient id="logoFg" x1="0" y1="0" x2="0" y2="1">
    <stop offset="0" stop-color="#E6FFEE"/><stop offset="1" stop-color="#82E7B0"/>
  </linearGradient>
  </defs>
  <style>
    .s { font-family: 'Segoe UI', Inter, -apple-system, BlinkMacSystemFont, 'Helvetica Neue', Helvetica, Arial, sans-serif; }
    .m { font-family: 'JetBrains Mono', 'SFMono-Regular', Menlo, Consolas, 'Liberation Mono', monospace; }
  </style>
<g transform="translate(10 4)">
<g filter="url(#sh)"><rect x="14" y="17" width="272" height="64" rx="20" fill="url(#slab)"/><rect x="14" y="10" width="272" height="64" rx="20" fill="url(#face)"/></g>
<rect x="14" y="10" width="272" height="64" rx="20" fill="url(#sheen)"/>
<rect x="14.75" y="10.75" width="270.5" height="62.5" rx="19.25" fill="none" stroke="url(#edge)" stroke-width="1.5"/>
<g transform="translate(26 20)"><rect y="3.5" width="44" height="44" rx="13.0" fill="#004F1C"/><rect width="44" height="44" rx="13.0" fill="url(#tile)"/><rect x="3.1" y="1.8" width="37.8" height="21.1" rx="10.4" fill="url(#gloss)" opacity="0.55"/><rect x=".75" y=".75" width="42.5" height="42.5" rx="12.2" fill="none" stroke="#9BF7C4" stroke-opacity="0.6" stroke-width="1.5"/><g transform="translate(10.56 10.56) scale(0.9533)" fill="none" stroke="currentColor" stroke-width="2" stroke-linecap="round" stroke-linejoin="round"><g transform="translate(0 1)" color="#00561F" opacity="0.75"><rect x="3" y="3" width="18" height="18" rx="4"/><path d="M8 10.5V17M8 7.3v.01M12 17v-6.5M12 13.3c0-1.7 1.1-2.9 2.6-2.9s2.4 1 2.4 2.9V17"/></g><g color="#F2FFF7"><rect x="3" y="3" width="18" height="18" rx="4"/><path d="M8 10.5V17M8 7.3v.01M12 17v-6.5M12 13.3c0-1.7 1.1-2.9 2.6-2.9s2.4 1 2.4 2.9V17"/></g></g></g>
<text class="s" x="84" y="39" font-size="18" font-weight="800" fill="#F3FFF7">LinkedIn</text>
<text class="m" x="84" y="59" font-size="12.5" fill="#6FA487">i-plus-t-solution</text>
</g>
</svg>
